<svg width="147" height="50" viewBox="0 0 147 50" fill="none" xmlns="http://www.w3.org/2000/svg">
<path d="M56.6453 47.3387C54.5548 45.8064 52.7055 44.4758 52.5849 44.3145C52.3437 44.0726 52.6653 43.629 58.6555 35.3629C62.1129 30.5645 65.0879 26.4919 65.2085 26.25C65.5301 25.6855 65.5301 24.4355 65.2085 23.8306C65.0879 23.5887 62.1129 19.4758 58.6555 14.6774C55.1578 9.87903 52.3839 5.8871 52.4643 5.84677C52.6653 5.68548 59.7409 0.524194 60.1831 0.241935L60.545 0L61.3892 1.16935C61.8717 1.81452 64.525 5.48387 67.299 9.31452C70.073 13.1452 72.3645 16.2903 72.4047 16.2903C72.4449 16.2903 75.1385 12.621 78.3949 8.14516C81.6111 3.66935 84.3448 0.0403226 84.3851 0.0403226C84.4655 0.0806452 86.2746 1.37097 88.4455 2.98387C91.0989 4.91935 92.3854 5.92742 92.3452 6.04839C92.3049 6.16935 89.4104 10.2016 85.9128 15C82.4151 19.8387 79.4804 23.9516 79.3999 24.1129C79.1989 24.6774 79.2391 25.5645 79.4803 26.0484C79.601 26.2903 80.8472 28.1048 82.2945 30.0403C90.7773 41.7339 92.3854 43.9919 92.3854 44.0726C92.3854 44.1935 84.6263 49.879 84.3851 49.9597C84.3046 50 81.6111 46.371 78.3547 41.8952C75.1385 37.4194 72.4047 33.7903 72.3645 33.8306C72.2841 33.871 69.6709 37.4193 66.4949 41.8145C63.3591 46.1693 60.7058 49.7984 60.5852 49.9194C60.5048 50.0806 59.5801 49.4758 56.6453 47.3387ZM7.43746 43.9516C4.06045 43.2258 1.40709 40.6452 0.361823 37.1774C0.120607 36.4113 0.120608 35.1613 0.080405 21.1694L0 5.96774H5.06552H10.131V19.6371C10.131 34.6774 10.0908 33.9919 11.0155 34.5564C11.4577 34.8387 11.6989 34.8387 17.2871 34.8387H23.1164V39.5161V44.1935H15.7594C9.80941 44.1532 8.20131 44.1129 7.43746 43.9516ZM33.0063 25V5.80645H38.2326H43.4589V25V44.1935H38.2326H33.0063V25ZM101.31 25V5.80645H106.537H111.763V25V44.1935H106.537H101.31V25ZM130.859 43.9516C130.296 43.8306 129.331 43.4677 128.688 43.1855C127.08 42.4193 125.351 40.6855 124.547 39.1129C123.462 36.9355 123.542 38.1048 123.502 21.1694L123.462 6.00806H128.527H133.593V19.6774C133.593 34.5564 133.553 34.0323 134.397 34.5564C134.759 34.7984 135.281 34.8387 140.709 34.879L146.659 34.9597L146.699 39.5968L146.739 44.2339H139.302C133.312 44.1532 131.663 44.1129 130.859 43.9516Z" fill="#E95D08"/>
</svg>
