<svg width="32" height="29" viewBox="0 0 32 29" fill="none" xmlns="http://www.w3.org/2000/svg">
<path d="M3.08829 16.1904C2.7479 16.1904 2.46939 16.4689 2.46939 16.8093C2.46939 17.1497 2.7479 17.4282 3.08829 17.4282C3.42869 17.4282 3.70719 17.1497 3.70719 16.8093C3.70719 16.4689 3.42869 16.1904 3.08829 16.1904Z" fill="#EC7C38"/>
<path d="M28.389 18.3319L22.5651 20.3309C22.5899 20.1886 22.6084 20.04 22.6084 19.8915C22.6084 18.5299 21.5006 17.4221 20.139 17.4221H16.1409C16.0357 17.4221 15.9305 17.3973 15.8377 17.3416L12.5761 15.5035C11.9324 15.1383 11.1959 14.9465 10.4532 14.9465H6.07141C5.81766 14.2286 5.13068 13.7087 4.32611 13.7087H0.6189C0.278505 13.7087 0 13.9872 0 14.3276V25.443C0 25.7834 0.278505 26.0619 0.6189 26.0619H4.32611C5.11212 26.0619 5.78672 25.5668 6.05285 24.8736C6.7522 24.9603 7.56296 25.1645 8.07046 25.474L11.3011 27.4111C12.5265 28.1476 13.9253 28.5313 15.3549 28.5313C16.4875 28.5313 17.583 28.2962 18.6103 27.8258L30.1405 22.7508C31.4154 22.2309 32.0467 20.7023 31.3164 19.3531C30.7779 18.369 29.5216 17.9234 28.389 18.3319ZM4.93883 24.2238C4.93883 24.5642 4.66032 24.8365 4.31993 24.8365H1.2378V14.9527H4.32611C4.66651 14.9527 4.94501 15.2312 4.94501 15.5716V24.2238H4.93883ZM29.6701 21.6182C29.6639 21.6182 29.6577 21.6244 29.6515 21.6244C29.6515 21.6244 18.1028 26.7056 18.1028 26.7118C17.2302 27.1079 16.308 27.3059 15.3549 27.3059C14.1543 27.3059 12.9722 26.9779 11.9386 26.359L8.70793 24.4218C8.01476 24.0072 7.02452 23.7534 6.17663 23.6544V16.1905H10.447C10.9793 16.1905 11.4992 16.3266 11.9633 16.5866L15.225 18.4247C15.5035 18.5794 15.8191 18.6661 16.1347 18.6661H20.1328C20.8136 18.6661 21.3706 19.2231 21.3706 19.9039C21.3706 20.5847 20.8136 21.1417 20.1328 21.1417H13.8572C13.5168 21.1417 13.2383 21.4202 13.2383 21.7606C13.2383 22.101 13.5168 22.3795 13.8572 22.3795H20.139C20.5413 22.3795 20.9436 22.2804 21.2964 22.0886C21.2964 22.0886 28.8036 19.5078 28.8098 19.5078C29.3606 19.3097 29.9919 19.5078 30.2333 19.9596C30.5984 20.628 30.2952 21.3707 29.6701 21.6182Z" fill="#EC7C38"/>
<path d="M17.9914 14.9836C18.109 15.0826 18.2514 15.1321 18.3937 15.1321C18.5361 15.1321 18.6846 15.0826 18.796 14.9836C23.8339 10.6142 26.9531 8.40468 26.9531 4.96978C26.9531 2.2528 25.0283 0 22.3237 0C20.5475 0 19.1921 1.02119 18.3133 2.55606C17.4468 1.02738 16.0914 0 14.309 0C12.2418 0 10.5089 1.34302 9.9024 3.41633C9.80338 3.74435 9.99524 4.08475 10.3233 4.18377C10.6513 4.28279 10.9917 4.09094 11.0907 3.76292C11.5425 2.22804 12.805 1.2378 14.309 1.2378C16.0728 1.2378 17.3045 2.80362 17.7253 4.25804C17.7996 4.52417 18.0409 4.70984 18.3194 4.70984C18.598 4.70984 18.8393 4.52417 18.9136 4.25804C18.9198 4.22709 19.7801 1.2378 22.3299 1.2378C24.2609 1.2378 25.7215 2.84076 25.7215 4.96978C25.7215 7.7177 23.0355 9.69818 18.3937 13.7025C15.5653 11.2764 13.3187 9.56202 12.0438 7.89099C11.8396 7.61867 11.4497 7.56916 11.1773 7.7734C10.905 7.97763 10.8555 8.36754 11.0597 8.63986C12.5018 10.5213 14.9279 12.3285 17.9914 14.9836Z" fill="#EC7C38"/>
<path d="M10.4408 5.44012C10.1004 5.44012 9.82194 5.71863 9.82194 6.05903C9.82194 6.39942 10.1004 6.67793 10.4408 6.67793C10.7812 6.67793 11.0597 6.39942 11.0597 6.05903C11.0597 5.71863 10.7812 5.44012 10.4408 5.44012Z" fill="#EC7C38"/>
</svg>
