<svg width="29" height="29" viewBox="0 0 29 29" fill="none" xmlns="http://www.w3.org/2000/svg">
<path d="M10.4793 19.6337C10.4167 19.6337 10.3599 19.6223 10.2973 19.6053C10.0017 19.5086 9.83676 19.1845 9.93911 18.8888L13.9591 6.82317C14.0387 6.59005 14.2548 6.43652 14.4993 6.43652C14.5618 6.43652 14.6187 6.4479 14.6812 6.46495C14.9769 6.56162 15.1418 6.88572 15.0395 7.18139L11.0195 19.2414C10.9398 19.4745 10.7238 19.6337 10.4793 19.6337Z" fill="#EE8C51"/>
<path d="M17.3138 15.3067C16.0572 15.3067 15.0394 14.2889 15.0394 13.0323C15.0394 11.7757 16.0572 10.7579 17.3138 10.7579C18.5704 10.7579 19.5882 11.7757 19.5882 13.0323C19.5882 14.2889 18.5704 15.3067 17.3138 15.3067ZM17.3138 11.8951C16.6884 11.8951 16.1766 12.4068 16.1766 13.0323C16.1766 13.6577 16.6884 14.1695 17.3138 14.1695C17.9393 14.1695 18.451 13.6577 18.451 13.0323C18.451 12.4068 17.945 11.8951 17.3138 11.8951Z" fill="#EE8C51"/>
<path d="M7.66473 15.3067C6.40812 15.3067 5.39033 14.2889 5.39033 13.0323C5.39033 11.7757 6.40812 10.7579 7.66473 10.7579C8.92133 10.7579 9.93912 11.7757 9.93912 13.0323C9.93912 14.2889 8.92133 15.3067 7.66473 15.3067ZM7.66473 11.8951C7.03927 11.8951 6.52753 12.4068 6.52753 13.0323C6.52753 13.6577 7.03927 14.1695 7.66473 14.1695C8.29018 14.1695 8.80192 13.6577 8.80192 13.0323C8.80192 12.4068 8.29587 11.8951 7.66473 11.8951Z" fill="#EE8C51"/>
<path d="M13.1915 28.5437C11.6222 28.5437 10.3485 27.27 10.3485 25.7007V25.1946L10.212 25.1094C10.0187 24.9899 9.83677 24.8478 9.67756 24.6886L0.830155 15.8469C0.295672 15.3124 0 14.5959 0 13.834C0 13.0721 0.295672 12.3614 0.830155 11.8212L11.2867 1.37032C11.372 1.28503 11.4857 1.22817 11.6108 1.21112L20.0488 0.00568599C20.0772 0 20.1057 0 20.1284 0C20.2819 0 20.4241 0.0568599 20.5321 0.164894L22.545 2.17774L24.5578 0.164894C24.6658 0.0568599 24.808 0 24.9615 0C25.115 0 25.2572 0.0568599 25.3652 0.164894C25.587 0.386648 25.587 0.744865 25.3652 0.966619L23.3524 2.97946L25.3595 4.9923C25.4846 5.11739 25.5472 5.29935 25.5187 5.47561L25.388 6.40243L28.43 10.4622C28.5039 10.5589 28.5437 10.684 28.5437 10.8034V25.7007C28.5437 27.27 27.27 28.5437 25.7007 28.5437H13.1915ZM24.3133 13.9193C24.2963 14.0387 24.2394 14.1524 24.1541 14.2434L13.6976 24.6943C13.1858 25.206 12.4978 25.5017 11.7643 25.5244L11.4686 25.5301L11.4914 25.8258C11.5539 26.7128 12.3045 27.4065 13.1915 27.4065H25.7007C26.6389 27.4065 27.4065 26.6389 27.4065 25.7007V10.991L25.1605 7.99451L24.3133 13.9193ZM11.9576 2.30851L1.63757 12.6286C0.972305 13.2939 0.972305 14.3742 1.63757 15.0395L10.485 23.8869C10.8091 24.211 11.2355 24.3872 11.6904 24.3872C12.1453 24.3872 12.5717 24.211 12.8958 23.8869L23.2159 13.5668L24.3531 5.59502L22.545 3.78687L20.9358 5.39601L21.7376 6.19773C21.8456 6.30577 21.9025 6.44792 21.9025 6.60144C21.9025 6.75496 21.8456 6.89711 21.7376 7.00514C21.6295 7.11318 21.4874 7.17004 21.3339 7.17004C21.1803 7.17004 21.0382 7.11318 20.9301 7.00514L18.5193 4.59428C18.4112 4.48625 18.3544 4.3441 18.3544 4.19058C18.3544 4.03706 18.4112 3.89491 18.5193 3.78687C18.6273 3.67884 18.7695 3.62198 18.923 3.62198C19.0765 3.62198 19.2187 3.67884 19.3267 3.78687L20.1284 4.5886L21.7376 2.97946L19.9294 1.17131L11.9576 2.30851Z" fill="#EE8C51"/>
</svg>
