<svg width="27" height="29" viewBox="0 0 27 29" fill="none" xmlns="http://www.w3.org/2000/svg">
<path d="M5.16613 28.5437C3.66747 28.5437 2.45513 27.4065 2.45513 26.0134V23.2102L2.15662 23.2045C0.96865 23.1761 0 22.2493 0 21.1405V20.3161C0 19.2073 0.96865 18.2805 2.15662 18.252L2.45513 18.2464V10.2973L2.15662 10.2916C0.96865 10.2632 0 9.3364 0 8.22763V7.40316C0 6.2944 0.96865 5.36758 2.15662 5.34483L2.45513 5.33915V2.53027C2.45513 1.1372 3.66747 0 5.16613 0H24.2833C25.7819 0 26.9943 1.1372 26.9943 2.53027V26.0077C26.9943 27.4065 25.7758 28.538 24.2833 28.538H5.16613V28.5437ZM5.16613 1.30778C4.44117 1.30778 3.85632 1.85932 3.85632 2.53027V5.33346L4.15484 5.33915C5.3428 5.36758 6.31145 6.2944 6.31145 7.40316V8.22763C6.31145 9.3364 5.3428 10.2632 4.15484 10.2916L3.85632 10.2973V18.252L4.15484 18.2577C5.3428 18.2862 6.31145 19.213 6.31145 20.3217V21.1462C6.31145 22.255 5.3428 23.1818 4.15484 23.2102L3.85632 23.2159V26.0191C3.85632 26.6957 4.44726 27.2416 5.16613 27.2416H24.2833C25.0082 27.2416 25.5931 26.6901 25.5931 26.0191V2.53027C25.5931 1.85363 25.0021 1.30778 24.2833 1.30778H5.16613ZM2.21145 19.5655C1.76672 19.5655 1.40119 19.901 1.40119 20.3161V21.1405C1.40119 21.5556 1.76063 21.8968 2.21145 21.8968H4.10001C4.54473 21.8968 4.91026 21.5613 4.91026 21.1405V20.3161C4.91026 19.901 4.55083 19.5598 4.10001 19.5598H2.21145V19.5655ZM2.21145 6.65261C1.76672 6.65261 1.40119 6.98809 1.40119 7.40316V8.22763C1.40119 8.64271 1.76063 8.98387 2.21145 8.98387H4.10001C4.54473 8.98387 4.91026 8.6484 4.91026 8.22763V7.40316C4.91026 6.98809 4.55083 6.64693 4.10001 6.64693H2.21145V6.65261ZM21.5479 21.3737C21.158 21.3737 20.8473 21.078 20.8473 20.7198V18.8718C20.8473 18.4965 20.6097 18.1554 20.2442 18.0019L18.0936 17.1035H13.3174L11.1669 18.0019C10.8014 18.1554 10.5638 18.4965 10.5638 18.8718V20.7198C10.5638 21.078 10.247 21.3737 9.86317 21.3737C9.47936 21.3737 9.16257 21.078 9.16257 20.7198V18.8718C9.16257 17.9791 9.72914 17.166 10.6003 16.8021C11.0999 16.5917 11.4959 16.4268 11.8127 16.2961C13.0128 15.79 13.0128 15.79 13.1773 15.79C14.4079 15.79 15.3461 15.79 16.065 15.7843C16.5158 15.7843 16.8813 15.7843 17.1798 15.7843C18.3983 15.7843 18.4287 15.7957 18.5079 15.8298L18.5384 15.8412L20.829 16.7964C21.7002 17.1603 22.2668 17.9734 22.2668 18.8661V20.7141C22.2485 21.078 21.9378 21.3737 21.5479 21.3737ZM15.7177 14.2662C13.4453 14.2662 11.5994 12.5433 11.5994 10.4224C11.5994 8.30155 13.4453 6.57869 15.7177 6.57869C17.9901 6.57869 19.836 8.30155 19.836 10.4224C19.836 12.5433 17.984 14.2662 15.7177 14.2662ZM15.7177 7.89216C14.219 7.89216 13.0067 9.02936 13.0067 10.4224C13.0067 11.8212 14.2251 12.9527 15.7177 12.9527C17.2103 12.9527 18.4287 11.8155 18.4287 10.4224C18.4287 9.02936 17.2103 7.89216 15.7177 7.89216Z" fill="#EC7C38"/>
</svg>
