<svg width="29" height="29" viewBox="0 0 29 29" fill="none" xmlns="http://www.w3.org/2000/svg">
<path d="M3.4269 3.93416V11.677C3.4269 11.9699 3.67765 12.221 3.97019 12.221H11.7016C11.9942 12.221 12.2449 11.9699 12.2449 11.677V10.2121C12.2449 9.91913 11.9942 9.66801 11.7016 9.66801C11.4091 9.66801 11.1584 9.91913 11.1584 10.2121V11.1329H4.55528V4.5201H11.1584V5.8594C11.1584 6.15237 11.4091 6.40349 11.7016 6.40349C11.9942 6.40349 12.2449 6.15237 12.2449 5.8594V3.93416C12.2449 3.64119 11.9942 3.39008 11.7016 3.39008H4.01199C3.67765 3.39008 3.4269 3.64119 3.4269 3.93416Z" fill="#EC7C38"/>
<path d="M6.72846 6.11053C6.43592 6.11053 6.18517 6.36165 6.18517 6.65462V8.99839C6.18517 9.29136 6.43592 9.54247 6.72846 9.54247H9.06879C9.36133 9.54247 9.61208 9.29136 9.61208 8.99839V6.65462C9.61208 6.36165 9.36133 6.11053 9.06879 6.11053H6.72846ZM8.48371 8.41245H7.27175V7.19871H8.48371V8.41245Z" fill="#EC7C38"/>
<path d="M11.7435 16.2389H4.01201C3.71947 16.2389 3.46872 16.49 3.46872 16.783V24.5258C3.46872 24.8187 3.71947 25.0699 4.01201 25.0699H11.7435C12.036 25.0699 12.2868 24.8187 12.2868 24.5258V16.8248C12.2868 16.49 12.036 16.2389 11.7435 16.2389ZM11.2002 23.9817H4.5553V17.3689H11.1584V23.9817H11.2002Z" fill="#EC7C38"/>
<path d="M16.8838 12.2629H24.6153C24.9078 12.2629 25.1586 12.0118 25.1586 11.7188V3.93416C25.1586 3.64119 24.9078 3.39008 24.6153 3.39008H16.8838C16.5913 3.39008 16.3405 3.64119 16.3405 3.93416V11.677C16.3405 12.0118 16.5913 12.2629 16.8838 12.2629ZM17.4689 4.5201H24.072V11.1329H17.4689V4.5201Z" fill="#EC7C38"/>
<path d="M25.2004 24.5676V16.8248C25.2004 16.5319 24.9496 16.2808 24.6571 16.2808H16.8838C16.5913 16.2808 16.3405 16.5319 16.3405 16.8248V24.5676C16.3405 24.8606 16.5913 25.1117 16.8838 25.1117H24.6153C24.9496 25.1117 25.2004 24.8606 25.2004 24.5676ZM24.072 23.9817H17.4689V17.3689H24.072V23.9817Z" fill="#EC7C38"/>
<path d="M24.6153 14.8578C24.9078 14.8578 25.1586 14.6066 25.1586 14.3137C25.1586 14.0207 24.9078 13.7696 24.6153 13.7696H14.836V3.89229C14.836 3.59932 14.5853 3.34821 14.2927 3.34821C14.0002 3.34821 13.7494 3.59932 13.7494 3.89229V13.7277H6.26874C5.9762 13.7277 5.72545 13.9788 5.72545 14.2718C5.72545 14.5648 5.9762 14.8159 6.26874 14.8159H13.7077V24.5258C13.7077 24.8188 13.9584 25.0699 14.2509 25.0699C14.5435 25.0699 14.7942 24.8188 14.7942 24.5258V14.8578H24.6153Z" fill="#EC7C38"/>
<path d="M6.72845 22.4332H9.06878C9.36132 22.4332 9.61207 22.182 9.61207 21.8891V19.5453C9.61207 19.2523 9.36132 19.0012 9.06878 19.0012H6.72845C6.43591 19.0012 6.18516 19.2523 6.18516 19.5453V21.8891C6.14337 22.182 6.39412 22.4332 6.72845 22.4332ZM7.27174 20.1312H8.4837V21.345H7.27174V20.1312Z" fill="#EC7C38"/>
<path d="M21.9406 6.11053H19.6003C19.3077 6.11053 19.057 6.36165 19.057 6.65462V8.99839C19.057 9.29136 19.3077 9.54247 19.6003 9.54247H21.9406C22.2332 9.54247 22.4839 9.29136 22.4839 8.99839V6.65462C22.4839 6.36165 22.2332 6.11053 21.9406 6.11053ZM21.3555 8.41245H20.1436V7.19871H21.3555V8.41245Z" fill="#EC7C38"/>
<path d="M19.6003 22.4332H21.9406C22.2332 22.4332 22.4839 22.182 22.4839 21.8891V19.5453C22.4839 19.2523 22.2332 19.0012 21.9406 19.0012H19.6003C19.3077 19.0012 19.057 19.2523 19.057 19.5453V21.8891C19.057 22.182 19.3077 22.4332 19.6003 22.4332ZM20.1436 20.1312H21.3555V21.345H20.1436V20.1312Z" fill="#EC7C38"/>
<path d="M3.88663 13.7277C3.55229 13.8114 3.38513 14.1044 3.42692 14.3974C3.46871 14.6485 3.71946 14.8159 3.97021 14.8159C4.012 14.8159 4.05379 14.8159 4.09559 14.8159H4.13738C4.42992 14.7322 4.63888 14.4392 4.55529 14.1462C4.5135 13.8533 4.17917 13.644 3.88663 13.7277Z" fill="#EC7C38"/>
<path d="M11.6181 7.49167C11.2837 7.57537 11.1166 7.86834 11.1584 8.16132C11.2002 8.41243 11.4509 8.57985 11.7017 8.57985C11.7434 8.57985 11.7852 8.57985 11.827 8.57985H11.8688C12.1614 8.49614 12.3703 8.20317 12.2867 7.9102C12.2449 7.57537 11.9106 7.40796 11.6181 7.49167Z" fill="#EC7C38"/>
<path d="M0.543291 4.60384C0.835833 4.60384 1.08658 4.35272 1.08658 4.05975V1.13005H3.88662C4.17916 1.13005 4.42991 0.878931 4.42991 0.585961C4.42991 0.29299 4.17916 0.0418727 3.88662 0.0418727H0.543291C0.25075 1.97962e-05 0 0.251137 0 0.544108V4.0179C0 4.35272 0.25075 4.60384 0.543291 4.60384Z" fill="#EC7C38"/>
<path d="M27.9586 0H24.6153C24.3227 0 24.072 0.251117 24.072 0.544088C24.072 0.837058 24.3227 1.08818 24.6153 1.08818H27.4153V3.97603C27.4153 4.269 27.6661 4.52012 27.9586 4.52012C28.2511 4.52012 28.5019 4.269 28.5019 3.97603V0.544088C28.5437 0.251117 28.2929 0 27.9586 0Z" fill="#EC7C38"/>
<path d="M3.9284 27.4137H1.12836V24.5258C1.12836 24.2329 0.877611 23.9818 0.58507 23.9818C0.292528 23.9818 0.0417786 24.2329 0.0417786 24.5258V27.9996C0.0417786 28.2926 0.292528 28.5437 0.58507 28.5437H3.9284C4.22094 28.5437 4.47169 28.2926 4.47169 27.9996C4.47169 27.6648 4.22094 27.4137 3.9284 27.4137Z" fill="#EC7C38"/>
<path d="M27.9586 23.9398C27.6661 23.9398 27.4153 24.1909 27.4153 24.4839V27.3718H24.6153C24.3227 27.3718 24.072 27.6229 24.072 27.9158C24.072 28.2088 24.3227 28.4599 24.6153 28.4599H27.9586C28.2511 28.4599 28.5019 28.2088 28.5019 27.9158V24.4421C28.5437 24.1909 28.2929 23.9398 27.9586 23.9398Z" fill="#EC7C38"/>
</svg>
