<svg width="18" height="19" viewBox="0 0 18 19" fill="none" xmlns="http://www.w3.org/2000/svg">
<path fill-rule="evenodd" clip-rule="evenodd" d="M2.99477 2.30951H5.61519C6.02697 2.30951 6.36388 2.65594 6.36388 3.07935C6.36388 4.04165 6.51362 4.96546 6.79064 5.82768C6.87299 6.09713 6.8131 6.39737 6.60347 6.61292L4.95634 8.30657C6.03446 10.4852 7.77142 12.2636 9.89022 13.3798L11.5373 11.6862C11.6871 11.5399 11.8743 11.4629 12.0689 11.4629C12.1438 11.4629 12.2261 11.4706 12.301 11.5014C13.1395 11.7863 14.0455 11.9402 14.9738 11.9402C15.3856 11.9402 15.7225 12.2867 15.7225 12.7101V15.3968C15.7225 15.8202 15.3856 16.1667 14.9738 16.1667C7.94362 16.1667 2.24608 10.3082 2.24608 3.07935C2.24608 2.65594 2.58299 2.30951 2.99477 2.30951ZM4.89645 3.84919C4.94137 4.53435 5.05367 5.20411 5.23336 5.84308L4.33493 6.76689C4.02796 5.84308 3.83331 4.86538 3.76592 3.84919H4.89645ZM12.2785 13.1027C12.9149 13.2874 13.5663 13.4029 14.2251 13.4491V14.5962C13.2369 14.5269 12.286 14.3267 11.3801 14.0188L12.2785 13.1027Z" fill="#EC7C38"/>
</svg>
