<svg width="29" height="27" viewBox="0 0 29 27" fill="none" xmlns="http://www.w3.org/2000/svg">
<path d="M4.60566 26.7242C3.32062 26.7242 2.2744 25.678 2.2744 24.3929V10.6328C2.2744 10.286 2.55301 10.0074 2.89986 10.0074C3.2467 10.0074 3.52532 10.286 3.52532 10.6328V24.3929C3.52532 24.99 4.00863 25.4733 4.60566 25.4733H23.938C24.5351 25.4733 25.0184 24.99 25.0184 24.3929V10.6328C25.0184 10.286 25.297 10.0074 25.6438 10.0074C25.9907 10.0074 26.2693 10.286 26.2693 10.6328V24.3929C26.2693 25.678 25.2231 26.7242 23.938 26.7242H4.60566Z" fill="#EC7C38"/>
<path d="M0.625459 13.527C0.460566 13.527 0.301358 13.4644 0.181952 13.345C0.0625459 13.2256 0 13.0721 0 12.9015C0 12.7366 0.0625459 12.5774 0.181952 12.458L11.4971 1.14288C12.2363 0.409391 13.2199 0 14.2718 0C15.3238 0 16.3074 0.409391 17.0466 1.14857L28.3617 12.4637C28.4811 12.5831 28.5437 12.7366 28.5437 12.9072C28.5437 13.0778 28.4811 13.2313 28.3617 13.3507C28.2423 13.4701 28.0888 13.5327 27.9182 13.5327C27.7533 13.5327 27.5941 13.4701 27.4747 13.3507L16.1596 2.03558C15.6592 1.52953 14.9883 1.25092 14.2718 1.25092C13.5554 1.25092 12.8845 1.52953 12.3841 2.0299L1.06897 13.345C0.949561 13.4644 0.790353 13.527 0.625459 13.527Z" fill="#EC7C38"/>
<path d="M10.6328 26.7242C10.286 26.7242 10.0074 26.4456 10.0074 26.0988V18.0246C10.0074 16.6145 11.1559 15.4659 12.5661 15.4659H15.9776C17.3878 15.4659 18.5363 16.6145 18.5363 18.0246V26.0988C18.5363 26.4456 18.2577 26.7242 17.9109 26.7242H10.6328ZM12.5661 16.7169C11.8439 16.7169 11.2583 17.3025 11.2583 18.0246V25.4733H17.2854V18.0246C17.2854 17.3025 16.6998 16.7169 15.9776 16.7169H12.5661Z" fill="#EC7C38"/>
</svg>
