<svg width="27" height="28" viewBox="0 0 27 28" fill="none" xmlns="http://www.w3.org/2000/svg">
<path d="M16.3155 27.055C14.9132 27.055 13.7749 25.9167 13.7749 24.5145V19.6864L12.7741 20.6047C12.6752 20.6982 12.5432 20.7477 12.4057 20.7477C12.2517 20.7477 12.1088 20.6817 11.9988 20.5717C11.7953 20.3462 11.8118 19.9998 12.0318 19.7963L17.6957 14.6163C18.1741 14.1819 18.7845 13.9399 19.4224 13.9399C20.0603 13.9399 20.6762 14.1819 21.1491 14.6163L24.7949 17.9487L24.8114 17.9597C24.8334 17.9762 24.8499 17.9927 24.8664 18.0092L24.8774 18.0202L26.813 19.7908C26.923 19.8898 26.9835 20.0218 26.989 20.1703C26.9945 20.3187 26.945 20.4562 26.846 20.5662C26.7415 20.6817 26.5986 20.7422 26.4391 20.7422C26.3016 20.7422 26.1697 20.6927 26.0707 20.5992L25.0259 19.6314V24.509C25.0259 25.9112 23.8876 27.0495 22.4853 27.0495H16.3155V27.055ZM19.4279 15.0342C19.0595 15.0342 18.713 15.1717 18.4381 15.4191L14.8692 18.68V24.509C14.8692 25.3063 15.5181 25.9552 16.3155 25.9552H22.4853C23.2827 25.9552 23.9316 25.3063 23.9316 24.509V18.6251L20.4177 15.4136C20.1428 15.1717 19.7908 15.0342 19.4279 15.0342ZM10.3711 27C10.1841 27 10.0081 26.9065 9.90917 26.747C8.68289 24.8059 7.15967 23.1342 5.68595 21.523L5.68045 21.5175C4.21222 19.9118 2.82648 18.3941 1.77617 16.6784C0.582892 14.7318 0 12.7741 0 10.69C0.00549898 7.83605 1.11629 5.14705 3.13992 3.12892C5.15804 1.11079 7.84705 0 10.701 0C13.555 0 16.244 1.11079 18.2621 3.12892C20.2802 5.14705 21.3965 7.83055 21.402 10.6845C21.402 10.833 21.347 10.9705 21.2426 11.0695C21.1381 11.1739 21.0006 11.2289 20.8576 11.2289C20.5552 11.2289 20.3077 10.9815 20.3077 10.679C20.3022 5.389 15.991 1.0833 10.701 1.0833C5.411 1.0833 1.0998 5.4 1.0943 10.69C1.0998 14.8747 3.59633 17.6132 6.4888 20.7807C7.99552 22.4303 9.55173 24.135 10.833 26.1587C10.9925 26.4116 10.9155 26.7525 10.6625 26.912C10.5745 26.9725 10.4756 27 10.3711 27ZM10.701 17.0138C7.22016 17.0138 4.38819 14.1819 4.38819 10.701C4.38819 7.22016 7.22016 4.38819 10.701 4.38819C14.1819 4.38819 17.0138 7.22016 17.0138 10.701C17.0138 11.0035 16.7664 11.2509 16.464 11.2509C16.1615 11.2509 15.9141 11.0035 15.9141 10.701C15.9141 7.82505 13.577 5.48798 10.701 5.48798C7.82505 5.48798 5.48798 7.82505 5.48798 10.701C5.48798 13.577 7.82505 15.9141 10.701 15.9141C11.0035 15.9141 11.2509 16.1615 11.2509 16.464C11.2509 16.7664 11.0035 17.0138 10.701 17.0138Z" fill="#EC7C38"/>
</svg>
