<svg width="24" height="29" viewBox="0 0 24 29" fill="none" xmlns="http://www.w3.org/2000/svg">
<path d="M2.96241 28.5437H20.7804C22.4359 28.5437 23.7428 27.2463 23.7428 25.6977V5.692C23.7428 4.10159 22.3923 2.846 20.7804 2.846H17.4259C17.1646 2.55303 16.7289 2.38562 16.3368 2.38562H14.812C14.5942 1.00447 13.3308 0 11.8932 0C10.4556 0 9.19218 1.00447 8.97436 2.38562H7.44959C7.01394 2.38562 6.62186 2.55303 6.36047 2.846H2.96241C1.35051 2.846 0 4.14344 0 5.692V25.6558C0 27.2881 1.35051 28.5437 2.96241 28.5437ZM20.7804 21.4287H17.2952C16.7289 21.4287 16.2933 21.8472 16.2933 22.3913V25.7395H3.48519C3.2238 25.7395 3.00597 25.5303 3.00597 25.2792V6.19423C3.00597 5.94311 3.2238 5.73385 3.48519 5.73385H5.96838C5.96838 6.52906 6.62186 7.15685 7.44959 7.15685H16.3804C17.2081 7.15685 17.8616 6.52906 17.8616 5.73385H20.3448C20.6062 5.73385 20.824 5.94311 20.824 6.19423V21.4287H20.7804ZM20.0834 22.3495L17.3388 25.028V22.3495H20.0834ZM7.44959 3.34823H9.41001C9.6714 3.34823 9.88922 3.13897 9.88922 2.88785C9.88922 1.84153 10.7605 1.00447 11.8496 1.00447C12.9388 1.00447 13.8101 1.84153 13.8101 2.88785C13.8536 3.13897 14.0714 3.34823 14.3764 3.34823H16.3368C16.5982 3.34823 16.816 3.5575 16.816 3.80862V5.692C16.816 5.94311 16.5982 6.15238 16.3368 6.15238H7.44959C7.1882 6.15238 6.97038 5.94311 6.97038 5.692V3.80862C6.92681 3.5575 7.14464 3.34823 7.44959 3.34823ZM1.00199 5.692C1.00199 4.64567 1.87329 3.80862 2.96241 3.80862H5.92482V4.77123H3.48519C2.65746 4.77123 2.00398 5.39903 2.00398 6.19423V25.2373C2.00398 26.0325 2.65746 26.6603 3.48519 26.6603H16.4675C16.6853 26.6603 16.8596 26.6185 17.0774 26.5347C17.0774 26.5347 17.0774 26.5347 17.121 26.5347C17.2952 26.451 17.4259 26.3673 17.5566 26.2418L21.4339 22.5169C21.5646 22.3913 21.6517 22.2658 21.7389 22.0983C21.7389 22.0983 21.7389 22.0983 21.7389 22.0565C21.826 21.8891 21.8696 21.6798 21.8696 21.4705V6.19423C21.8696 5.39903 21.2161 4.77123 20.3883 4.77123H17.9052V3.80862H20.8676C21.9567 3.80862 22.828 4.64567 22.828 5.692V25.6558C22.828 26.7022 21.9567 27.5392 20.8676 27.5392H2.96241C1.87329 27.5392 1.00199 26.7022 1.00199 25.6558V5.692Z" fill="#EC7C38"/>
<path d="M9.41001 5.23156H14.3764C14.6378 5.23156 14.8556 5.02229 14.8556 4.77117C14.8556 4.52006 14.6378 4.31079 14.3764 4.31079H9.41001C9.14862 4.31079 8.93079 4.52006 8.93079 4.77117C8.93079 5.02229 9.14862 5.23156 9.41001 5.23156Z" fill="#EC7C38"/>
<path d="M8.40801 12.3884C8.14662 12.3884 7.92879 12.5977 7.92879 12.8488V13.3092H4.96638V10.4632H6.44759C6.70898 10.4632 6.9268 10.2539 6.9268 10.0028C6.9268 9.75168 6.70898 9.54242 6.44759 9.54242H4.96638C4.40004 9.54242 3.96439 9.96095 3.96439 10.505V13.351C3.96439 13.8951 4.40004 14.3137 4.96638 14.3137H7.92879C8.49514 14.3137 8.93079 13.8951 8.93079 13.351V12.8907C8.93079 12.5977 8.71296 12.3884 8.40801 12.3884Z" fill="#EC7C38"/>
<path d="M7.92879 16.1971H4.96638C4.40004 16.1971 3.96439 16.6156 3.96439 17.1597V20.0057C3.96439 20.5498 4.40004 20.9683 4.96638 20.9683H7.92879C8.49514 20.9683 8.93079 20.5498 8.93079 20.0057V17.1597C8.93079 16.6156 8.45157 16.1971 7.92879 16.1971ZM4.96638 20.0057V17.1597H7.92879V20.0057H4.96638Z" fill="#EC7C38"/>
<path d="M10.412 11.4259H12.8952C13.1566 11.4259 13.3744 11.2166 13.3744 10.9655C13.3744 10.7144 13.1566 10.5051 12.8952 10.5051H10.412C10.1506 10.5051 9.93277 10.7144 9.93277 10.9655C9.88921 11.2166 10.107 11.4259 10.412 11.4259Z" fill="#EC7C38"/>
<path d="M19.2992 10.4633H14.8556C14.5942 10.4633 14.3764 10.6725 14.3764 10.9236C14.3764 11.1748 14.5942 11.384 14.8556 11.384H19.2992C19.5606 11.384 19.7784 11.1748 19.7784 10.9236C19.822 10.6725 19.6042 10.4633 19.2992 10.4633Z" fill="#EC7C38"/>
<path d="M10.412 13.3092H15.3784C15.6398 13.3092 15.8576 13.0999 15.8576 12.8488C15.8576 12.5977 15.6398 12.3884 15.3784 12.3884H10.412C10.1506 12.3884 9.93277 12.5977 9.93277 12.8488C9.88921 13.0999 10.107 13.3092 10.412 13.3092Z" fill="#EC7C38"/>
<path d="M19.2992 12.3884H17.3388C17.0774 12.3884 16.8596 12.5977 16.8596 12.8488C16.8596 13.0999 17.0774 13.3092 17.3388 13.3092H19.2992C19.5606 13.3092 19.7784 13.0999 19.7784 12.8488C19.822 12.5977 19.6042 12.3884 19.2992 12.3884Z" fill="#EC7C38"/>
<path d="M10.412 18.0805H12.8952C13.1566 18.0805 13.3744 17.8712 13.3744 17.6201C13.3744 17.369 13.1566 17.1597 12.8952 17.1597H10.412C10.1506 17.1597 9.93277 17.369 9.93277 17.6201C9.88921 17.8712 10.107 18.0805 10.412 18.0805Z" fill="#EC7C38"/>
<path d="M19.2992 17.1179H14.8556C14.5942 17.1179 14.3764 17.3271 14.3764 17.5782C14.3764 17.8294 14.5942 18.0386 14.8556 18.0386H19.2992C19.5606 18.0386 19.7784 17.8294 19.7784 17.5782C19.822 17.3271 19.6042 17.1179 19.2992 17.1179Z" fill="#EC7C38"/>
<path d="M15.3348 19.0431H10.412C10.1506 19.0431 9.9328 19.2524 9.9328 19.5035C9.9328 19.7546 10.1506 19.9639 10.412 19.9639H15.3784C15.6398 19.9639 15.8576 19.7546 15.8576 19.5035C15.8576 19.2524 15.6398 19.0431 15.3348 19.0431Z" fill="#EC7C38"/>
<path d="M19.2992 19.0431H17.3388C17.0774 19.0431 16.8596 19.2524 16.8596 19.5035C16.8596 19.7546 17.0774 19.9639 17.3388 19.9639H19.2992C19.5606 19.9639 19.7784 19.7546 19.7784 19.5035C19.822 19.2524 19.6042 19.0431 19.2992 19.0431Z" fill="#EC7C38"/>
<path d="M9.01792 8.74727L6.88324 11.6351L6.3169 11.091C6.14264 10.9236 5.79412 10.9236 5.61986 11.091C5.4456 11.2584 5.4456 11.5514 5.61986 11.7607L6.62185 12.7233C6.70898 12.807 6.83968 12.8489 6.97037 12.8489C7.10107 12.8489 7.23176 12.7652 7.31889 12.6396L9.80208 9.29136C9.93278 9.1658 9.93278 8.95654 9.84565 8.78913C9.75852 8.62171 9.62783 8.53801 9.45357 8.49615C9.27931 8.53801 9.10505 8.62171 9.01792 8.74727Z" fill="#EC7C38"/>
</svg>
