<svg width="26" height="31" viewBox="0 0 26 31" fill="none" xmlns="http://www.w3.org/2000/svg">
<path d="M12.8417 30.2668C12.7151 30.2668 12.5884 30.2548 12.4679 30.2307C12.3774 30.2126 12.293 30.1885 12.2086 30.1583C9.28442 29.1394 6.86669 27.7104 5.02174 25.9077C3.40591 24.3341 2.17594 22.4168 1.36199 20.2101C-0.121203 16.1765 -0.0367936 11.7028 0.0295281 8.10934V8.05508C0.0415866 7.75362 0.0536451 7.4401 0.0596743 7.0904C0.0837913 5.54691 1.30773 4.26871 2.85724 4.1843C6.48082 3.97931 9.29045 2.79757 11.6901 0.458223L11.7082 0.440135C12.0157 0.156761 12.4196 0 12.8417 0C13.2637 0 13.6677 0.156761 13.9812 0.446165L13.9993 0.464252C16.3989 2.8036 19.2025 3.98534 22.8321 4.19033C24.3756 4.27474 25.6056 5.55294 25.6297 7.09643C25.6357 7.45216 25.6418 7.77171 25.6599 8.06714V8.08523C25.7262 11.6847 25.8106 16.1644 24.3214 20.2101C23.5074 22.4168 22.2774 24.3341 20.6616 25.9077C18.8227 27.7044 16.405 29.1334 13.4808 30.1583C13.3964 30.1885 13.312 30.2126 13.2215 30.2307C13.0949 30.2548 12.9683 30.2668 12.8417 30.2668ZM12.8417 1.21188C12.7331 1.21188 12.6246 1.25408 12.5342 1.32644L12.5282 1.33246L12.5221 1.33849C11.2138 2.6167 9.80294 3.55726 8.21724 4.23254C6.62552 4.90781 4.89513 5.28765 2.92357 5.39618C2.00712 5.44442 1.28361 6.19807 1.26552 7.11452C1.25949 7.47024 1.25347 7.79582 1.23538 8.10934V8.13346C1.16303 11.8113 1.08465 15.9715 2.49549 19.794C4.11736 24.1954 7.42138 27.21 12.6065 29.0188C12.6367 29.0309 12.6729 29.0369 12.703 29.0429C12.7512 29.055 12.7995 29.055 12.8417 29.055C12.8899 29.055 12.9321 29.0489 12.9803 29.0429C13.0105 29.0369 13.0467 29.0309 13.0768 29.0188C18.2559 27.21 21.56 24.1894 23.1818 19.794C24.5987 15.9594 24.5143 11.7932 24.448 8.11537V8.10934C24.4359 7.80185 24.4239 7.47627 24.4178 7.11452C24.4058 6.19807 23.6762 5.44442 22.7658 5.39618C20.7943 5.28765 19.0578 4.90781 17.4721 4.23254C15.8864 3.56329 14.4816 2.6167 13.1673 1.33849L13.1612 1.33246L13.1552 1.32644C13.0648 1.24806 12.9502 1.21188 12.8417 1.21188Z" fill="#EC7C38"/>
<path d="M12.8417 22.5253C8.76591 22.5253 5.44982 19.2092 5.44982 15.1334C5.44982 11.0577 8.76591 7.74158 12.8417 7.74158C16.9175 7.74158 20.2336 11.0577 20.2336 15.1334C20.2336 19.2092 16.9175 22.5253 12.8417 22.5253ZM12.8417 8.95346C9.43516 8.95346 6.65567 11.7269 6.65567 15.1395C6.65567 18.552 9.42913 21.3255 12.8417 21.3255C16.2482 21.3255 19.0277 18.552 19.0277 15.1395C19.0277 11.7269 16.2482 8.95346 12.8417 8.95346Z" fill="#EC7C38"/>
<path d="M11.4791 18.2023C11.3163 18.2023 11.1656 18.142 11.051 18.0274L9.44121 16.4176C9.20607 16.1825 9.20607 15.7966 9.44121 15.5615C9.55577 15.4469 9.7065 15.3866 9.86929 15.3866C10.0321 15.3866 10.1828 15.4469 10.2974 15.5615L11.4791 16.7432L15.2655 12.9568C15.38 12.8423 15.5307 12.782 15.6935 12.782C15.8563 12.782 16.0071 12.8423 16.1216 12.9568C16.3568 13.192 16.3568 13.5778 16.1216 13.813L11.9072 18.0274C11.7926 18.142 11.6419 18.2023 11.4791 18.2023Z" fill="#EC7C38"/>
</svg>
