<svg width="33" height="29" viewBox="0 0 33 29" fill="none" xmlns="http://www.w3.org/2000/svg">
<path d="M3.55845 28.8105C3.06369 28.8105 2.58162 28.709 2.13126 28.5188C1.70628 28.3348 1.3257 28.0684 1.0022 27.7322C0.685049 27.4024 0.43767 27.0281 0.266408 26.6032C0.0888026 26.1782 0.00634304 25.7278 0 25.2711C0.00634304 24.6241 0.190291 23.9835 0.545502 23.4189L13.2252 1.94141L13.2316 1.92872C13.5614 1.40225 14.0181 0.970923 14.5636 0.685486C15.0774 0.412736 15.6546 0.266846 16.2382 0.266846H16.2445H16.2509C16.8344 0.266846 17.4117 0.412736 17.9254 0.685486C18.4646 0.970923 18.9276 1.40225 19.2575 1.92872L19.2638 1.94141L27.3512 15.636C27.44 15.7819 27.459 15.9532 27.421 16.1181C27.3766 16.283 27.2751 16.4226 27.1292 16.505C27.0341 16.5621 26.9199 16.5938 26.8057 16.5938C26.5837 16.5938 26.3744 16.4733 26.2602 16.283L18.1792 2.60109C17.7542 1.92872 17.0501 1.53545 16.2445 1.53545C15.439 1.53545 14.7349 1.92238 14.3099 2.59474L1.63016 24.0723L1.62382 24.085C1.39547 24.4529 1.27495 24.8525 1.27495 25.2711C1.27495 25.8483 1.50964 26.4256 1.9156 26.8505C2.35327 27.3009 2.92414 27.5419 3.56479 27.5419H28.9306C29.5713 27.5419 30.1358 27.3009 30.5735 26.8505C30.9858 26.4256 31.2141 25.8547 31.2141 25.2711C31.2141 24.8525 31.0936 24.4529 30.8652 24.085L30.8589 24.0723L29.159 21.1989C29.0702 21.053 29.0511 20.8817 29.0892 20.7168C29.1336 20.5519 29.2351 20.4123 29.381 20.3299C29.4761 20.2728 29.5903 20.2411 29.7045 20.2411C29.9265 20.2411 30.1358 20.3616 30.25 20.5519L31.9436 23.4189C32.2924 23.9835 32.4827 24.6241 32.4827 25.2711C32.4827 25.7278 32.3939 26.1782 32.2227 26.6032C32.0514 27.0218 31.804 27.4024 31.4869 27.7322C31.1697 28.0684 30.7891 28.3285 30.3642 28.5188C29.9138 28.7154 29.4381 28.8105 28.937 28.8105H3.55845Z" fill="#EC7C38"/>
<path d="M28.6135 25.6391H3.87559C3.64724 25.6391 3.43792 25.5185 3.32375 25.3219C3.20957 25.1253 3.20957 24.8779 3.33009 24.6876L15.699 3.75557C15.8132 3.56528 16.0225 3.44476 16.2445 3.44476C16.4665 3.44476 16.6758 3.56528 16.79 3.75557L29.159 24.6876C29.2731 24.8842 29.2795 25.1253 29.1653 25.3219C29.0511 25.5185 28.8418 25.6391 28.6135 25.6391ZM4.98562 24.3705H27.5034L16.2445 5.3223L4.98562 24.3705Z" fill="#EC7C38"/>
<path d="M16.2445 23.0384C15.1979 23.0384 14.3416 22.1821 14.3416 21.1355C14.3416 20.0889 15.1979 19.2325 16.2445 19.2325C17.2911 19.2325 18.1474 20.0889 18.1474 21.1355C18.1474 22.1821 17.2911 23.0384 16.2445 23.0384ZM16.2445 20.5012C15.8957 20.5012 15.6102 20.7866 15.6102 21.1355C15.6102 21.4843 15.8957 21.7698 16.2445 21.7698C16.5934 21.7698 16.8788 21.4843 16.8788 21.1355C16.8788 20.7866 16.5934 20.5012 16.2445 20.5012Z" fill="#EC7C38"/>
<path d="M16.2445 17.9639C15.5468 17.9639 15.2677 17.1584 15.1535 16.8158C15.0076 16.3845 14.8617 15.801 14.7285 15.0778C14.4939 13.8092 14.348 12.4709 14.348 12.0649C14.348 11.0183 15.2043 10.162 16.2509 10.162C17.2975 10.162 18.1538 11.0183 18.1538 12.0649C18.1538 12.4709 18.0079 13.8092 17.7732 15.0778C17.64 15.801 17.4941 16.3845 17.3482 16.8158C17.2214 17.1584 16.9423 17.9639 16.2445 17.9639ZM16.2445 11.4306C15.8957 11.4306 15.6102 11.716 15.6102 12.0649C15.6102 12.3059 15.7117 13.3589 15.9083 14.5006C16.0289 15.2174 16.1494 15.7121 16.2445 16.061C16.3397 15.7185 16.4539 15.2174 16.5807 14.5006C16.7773 13.3589 16.8788 12.3059 16.8788 12.0649C16.8788 11.716 16.5934 11.4306 16.2445 11.4306Z" fill="#EC7C38"/>
<path d="M28.2582 19.0549C28.6086 19.0549 28.8925 18.7709 28.8925 18.4206C28.8925 18.0703 28.6086 17.7863 28.2582 17.7863C27.9079 17.7863 27.6239 18.0703 27.6239 18.4206C27.6239 18.7709 27.9079 19.0549 28.2582 19.0549Z" fill="#EC7C38"/>
</svg>
