<svg width="17" height="17" viewBox="0 0 17 17" fill="none" xmlns="http://www.w3.org/2000/svg">
<path fill-rule="evenodd" clip-rule="evenodd" d="M8.5 1C6.42812 1 4.75 2.67812 4.75 4.75C4.75 6.82188 6.42812 8.5 8.5 8.5C10.5719 8.5 12.25 6.82188 12.25 4.75C12.25 2.67812 10.5719 1 8.5 1ZM10.375 4.75C10.375 3.71875 9.53125 2.875 8.5 2.875C7.46875 2.875 6.625 3.71875 6.625 4.75C6.625 5.78125 7.46875 6.625 8.5 6.625C9.53125 6.625 10.375 5.78125 10.375 4.75ZM14.125 13.1875C13.9375 12.5219 11.0312 11.3125 8.5 11.3125C5.96875 11.3125 3.0625 12.5219 2.875 13.1969V14.125H14.125V13.1875ZM1 13.1875C1 10.6938 5.99687 9.4375 8.5 9.4375C11.0031 9.4375 16 10.6938 16 13.1875V16H1V13.1875Z" fill="#EC7C38"/>
<path d="M14.125 13.1875H14.375V13.153L14.3656 13.1197L14.125 13.1875ZM2.875 13.1969L2.63412 13.13L2.625 13.1628V13.1969H2.875ZM2.875 14.125H2.625V14.375H2.875V14.125ZM14.125 14.125V14.375H14.375V14.125H14.125ZM16 16V16.25H16.25V16H16ZM1 16H0.75V16.25H1V16ZM5 4.75C5 2.8162 6.5662 1.25 8.5 1.25V0.75C6.29005 0.75 4.5 2.54005 4.5 4.75H5ZM8.5 8.25C6.5662 8.25 5 6.6838 5 4.75H4.5C4.5 6.95995 6.29005 8.75 8.5 8.75V8.25ZM12 4.75C12 6.6838 10.4338 8.25 8.5 8.25V8.75C10.7099 8.75 12.5 6.95995 12.5 4.75H12ZM8.5 1.25C10.4338 1.25 12 2.8162 12 4.75H12.5C12.5 2.54005 10.7099 0.75 8.5 0.75V1.25ZM8.5 3.125C9.39318 3.125 10.125 3.85682 10.125 4.75H10.625C10.625 3.58068 9.66932 2.625 8.5 2.625V3.125ZM6.875 4.75C6.875 3.85682 7.60682 3.125 8.5 3.125V2.625C7.33068 2.625 6.375 3.58068 6.375 4.75H6.875ZM8.5 6.375C7.60682 6.375 6.875 5.64318 6.875 4.75H6.375C6.375 5.91932 7.33068 6.875 8.5 6.875V6.375ZM10.125 4.75C10.125 5.64318 9.39318 6.375 8.5 6.375V6.875C9.66932 6.875 10.625 5.91932 10.625 4.75H10.125ZM8.5 11.5625C9.73022 11.5625 11.0605 11.8574 12.1064 12.2355C12.629 12.4244 13.0726 12.6313 13.3925 12.827C13.5528 12.925 13.676 13.0166 13.7615 13.0975C13.8517 13.1828 13.8791 13.2366 13.8844 13.2553L14.3656 13.1197C14.324 12.972 14.2196 12.8424 14.105 12.7342C13.9859 12.6215 13.8315 12.5094 13.6534 12.4005C13.2966 12.1822 12.8202 11.9619 12.2764 11.7653C11.1895 11.3723 9.80103 11.0625 8.5 11.0625V11.5625ZM3.11588 13.2638C3.12149 13.2436 3.14937 13.1888 3.2393 13.103C3.32478 13.0214 3.44793 12.9292 3.60811 12.8306C3.92786 12.6337 4.37127 12.4261 4.89382 12.2366C5.93959 11.8574 7.26979 11.5625 8.5 11.5625V11.0625C7.19896 11.0625 5.81041 11.3723 4.72337 11.7665C4.17951 11.9638 3.703 12.185 3.346 12.4048C3.16779 12.5145 3.01336 12.6275 2.89412 12.7412C2.77935 12.8508 2.67538 12.9814 2.63412 13.13L3.11588 13.2638ZM3.125 14.125V13.1969H2.625V14.125H3.125ZM14.125 13.875H2.875V14.375H14.125V13.875ZM13.875 13.1875V14.125H14.375V13.1875H13.875ZM8.5 9.1875C7.21719 9.1875 5.31058 9.50743 3.71836 10.1453C2.92205 10.4643 2.18865 10.8689 1.65032 11.3658C1.11029 11.8642 0.75 12.4722 0.75 13.1875H1.25C1.25 12.6559 1.51432 12.1717 1.98943 11.7332C2.46623 11.2932 3.1385 10.9162 3.9043 10.6094C5.43629 9.9957 7.27969 9.6875 8.5 9.6875V9.1875ZM16.25 13.1875C16.25 12.4722 15.8897 11.8642 15.3497 11.3658C14.8114 10.8689 14.078 10.4643 13.2816 10.1453C11.6894 9.50743 9.78281 9.1875 8.5 9.1875V9.6875C9.72031 9.6875 11.5637 9.9957 13.0957 10.6094C13.8615 10.9162 14.5338 11.2932 15.0106 11.7332C15.4857 12.1717 15.75 12.6559 15.75 13.1875H16.25ZM16.25 16V13.1875H15.75V16H16.25ZM1 16.25H16V15.75H1V16.25ZM0.75 13.1875V16H1.25V13.1875H0.75Z" fill="white"/>
</svg>
