<svg width="18" height="19" viewBox="0 0 18 19" fill="none" xmlns="http://www.w3.org/2000/svg">
<path fill-rule="evenodd" clip-rule="evenodd" d="M8.9843 1.53967C6.08686 1.53967 3.74345 3.94928 3.74345 6.92856C3.74345 10.9702 8.9843 16.9365 8.9843 16.9365C8.9843 16.9365 14.2251 10.9702 14.2251 6.92856C14.2251 3.94928 11.8817 1.53967 8.9843 1.53967ZM5.24084 6.92856C5.24084 4.8038 6.91791 3.07935 8.9843 3.07935C11.0507 3.07935 12.7278 4.8038 12.7278 6.92856C12.7278 9.1457 10.5715 12.4637 8.9843 14.5346C7.42702 12.4791 5.24084 9.12261 5.24084 6.92856ZM7.11257 6.92856C7.11257 5.86563 7.95057 5.00396 8.9843 5.00396C9.653 5.00396 10.2709 5.37079 10.6053 5.96626C10.9396 6.56173 10.9396 7.29539 10.6053 7.89086C10.2709 8.48634 9.653 8.85316 8.9843 8.85316C7.95057 8.85316 7.11257 7.99149 7.11257 6.92856Z" fill="#EC7C38"/>
</svg>
